PathFileType	4	(X/Y/Z)	/Users/itak/Documents/Research/Walk-IL/dataset/trc/00566_00009.trc
DataRate	CameraRate	NumFrames	NumMarkers	Units	OrigDataRate	OrigDataStartFrame	OrigNumFrames
100.000000	100.000000	4	55	mm	100.000000	61	494
Frame#	Time	RPSI			LPSI			L3			STRN			T10			C7			CLAV			RBAK			LBAK			LSHO			LUPA			LAEL			LAOL			LWPS			LFRA			LHPS			LHTS			RSHO			RUPA			RAEL			RAOL			RWTS			RWPS			RFRA			RIFD			RHTS			RHPS			RBHD			LFHD			RFHD			LBHD			LHIP			RASI			LASI			LKNE			LTHI			LANK			LTIP			LTOE			LMT1			LMT5			LHEE			RKNE			RTHI			RANK			RTIP			RTOE			RMT1			RMT5			RHEE			RHIP			LWTS			LIFD			*53			*54			
		X1	Y1	Z1	X2	Y2	Z2	X3	Y3	Z3	X4	Y4	Z4	X5	Y5	Z5	X6	Y6	Z6	X7	Y7	Z7	X8	Y8	Z8	X9	Y9	Z9	X10	Y10	Z10	X11	Y11	Z11	X12	Y12	Z12	X13	Y13	Z13	X14	Y14	Z14	X15	Y15	Z15	X16	Y16	Z16	X17	Y17	Z17	X18	Y18	Z18	X19	Y19	Z19	X20	Y20	Z20	X21	Y21	Z21	X22	Y22	Z22	X23	Y23	Z23	X24	Y24	Z24	X25	Y25	Z25	X26	Y26	Z26	X27	Y27	Z27	X28	Y28	Z28	X29	Y29	Z29	X30	Y30	Z30	X31	Y31	Z31	X32	Y32	Z32	X33	Y33	Z33	X34	Y34	Z34	X35	Y35	Z35	X36	Y36	Z36	X37	Y37	Z37	X38	Y38	Z38	X39	Y39	Z39	X40	Y40	Z40	X41	Y41	Z41	X42	Y42	Z42	X43	Y43	Z43	X44	Y44	Z44	X45	Y45	Z45	X46	Y46	Z46	X47	Y47	Z47	X48	Y48	Z48	X49	Y49	Z49	X50	Y50	Z50	X51	Y51	Z51	X52	Y52	Z52	X53	Y53	Z53	X54	Y54	Z54	X55	Y55	Z55	

62	0.61	-1293.786499023438	1015.947509765625	-366.8283996582031	-1254.905883789062	1017.089660644531	-494.7386169433594	-1265.396484375	1108.65087890625	-433.498046875	-1034.963500976562	1284.746948242188	-377.46044921875	-1270.258422851562	1233.856567382812	-437.5146789550781	-1213.66064453125	1505.474487304688	-409.3885803222656	-1048.027954101562	1395.43603515625	-378.7612915039062	-1309.930297851562	1384.009155273438	-344.8652648925781	-1226.666015625	1455.846923828125	-508.6536560058594	-1110.055297851562	1475.080078125	-565.2747192382812	-1103.007690429688	1346.874267578125	-643.2854614257812	-1080.622924804688	1124.08544921875	-655.3331909179688	-1178.411499023438	1118.398681640625	-631.9291381835938	-1034.292724609375	858.1105346679688	-658.29736328125	-1058.276733398438	1037.662353515625	-653.2675170898438	-1029.715209960938	798.513916015625	-647.0360107421875	-981.222900390625	812.3674926757812	-594.5602416992188	-1196.040893554688	1462.231567382812	-243.8649291992188	-1231.271240234375	1396.69287109375	-182.8977966308594	-1252.651977539062	1105.468139648438	-148.1895141601562	-1300.579711914062	1091.077392578125	-186.4776763916016	-1121.199584960938	879.5777587890625	-164.6807556152344	-1181.391967773438	860.0751953125	-109.8652420043945	-1246.69921875	1048.941040039062	-140.3325500488281	-1122.782836914062	705.6923217773438	-165.8562774658203	-1101.920166015625	785.9569702148438	-146.7711181640625	-1168.367065429688	785.0990600585938	-110.0927581787109	-1151.883666992188	1681.503784179688	-322.9065551757812	-965.160888671875	1698.745849609375	-412.3560180664062	-1019.165161132812	1694.934448242188	-278.7021484375	-1083.15771484375	1683.906616210938	-473.56396484375	-1094.0888671875	925.3069458007812	-583.6776123046875	-1111.042236328125	966.2249145507812	-246.2680206298828	-1038.542358398438	953.0875244140625	-513.7664184570312	-1125.146362304688	486.2900085449219	-510.5812377929688	-1101.816040039062	649.9645385742188	-550.6578979492188	-1229.432983398438	25.77339363098145	-508.1989440917969	-1198.843383789062	246.0543365478516	-523.8782348632812	-1033.516967773438	36.17413711547852	-408.147216796875	-1112.649291992188	40.29281997680664	-388.1298217773438	-1106.618774414062	31.19155693054199	-496.6130065917969	-1308.3291015625	30.38424491882324	-467.5559387207031	-1203.17431640625	496.0539245605469	-249.8560180664062	-1185.004272460938	785.1806640625	-204.6588287353516	-1305.724731445312	35.75851058959961	-280.6076354980469	-1211.821044921875	354.36376953125	-260.2938537597656	-1082.433959960938	36.9490966796875	-257.2108459472656	-1132.7802734375	31.97388648986816	-317.2727355957031	-1183.359985351562	39.46834564208984	-226.2233734130859	-1344.267700195312	21.01988220214844	-344.2591857910156	-1215.500366210938	939.7945556640625	-216.4662933349609	-1011.946838378906	882.614990234375	-577.4776611328125	-1016.505493164062	712.6640014648438	-577.13525390625	nan	nan	nan	nan	nan	nan	
63	0.62	-1293.034912109375	1015.97314453125	-367.3673095703125	-1254.218383789062	1017.053955078125	-495.3341674804688	-1264.53173828125	1108.819580078125	-434.0581970214844	-1033.7998046875	1284.479125976562	-378.1498413085938	-1269.186279296875	1234.004638671875	-438.1028747558594	-1212.0703125	1505.51708984375	-409.9610595703125	-1046.625732421875	1395.19873046875	-379.3635864257812	-1308.535522460938	1384.20751953125	-345.4022216796875	-1225.218994140625	1455.911254882812	-509.2568054199219	-1108.555908203125	1475.007446289062	-565.8757934570312	-1101.72802734375	1346.792358398438	-643.9007568359375	-1079.658813476562	1123.94970703125	-656.0072631835938	-1177.423217773438	1118.336669921875	-632.6073608398438	-1033.682250976562	857.9122314453125	-658.951416015625	-1057.407348632812	1037.492553710938	-653.9056396484375	-1029.172973632812	798.30712890625	-647.696533203125	-980.6093139648438	812.1549682617188	-595.2153930664062	-1194.472290039062	1462.222778320312	-244.4653930664062	-1229.781616210938	1396.731567382812	-183.4948883056641	-1251.623657226562	1105.602294921875	-148.6434020996094	-1299.590942382812	1091.2568359375	-186.8757019042969	-1120.383056640625	879.6051635742188	-165.0942840576172	-1180.6376953125	860.1824951171875	-110.1779327392578	-1245.7255859375	1049.07763671875	-140.7494659423828	-1122.090576171875	705.6998291015625	-166.1894989013672	-1101.14013671875	785.9488525390625	-147.1647796630859	-1167.60888671875	785.173095703125	-110.4528198242188	-1149.679321289062	1681.4404296875	-323.3250427246094	-962.876220703125	1698.151245117188	-412.8046264648438	-1016.91064453125	1694.362548828125	-279.1358032226562	-1081.015625	1683.74609375	-474.0078430175781	-1093.753173828125	925.3375244140625	-584.4686889648438	-1110.29541015625	966.1698608398438	-246.8916473388672	-1037.981567382812	952.911376953125	-514.406982421875	-1124.700805664062	486.1001892089844	-510.9979248046875	-1101.451416015625	649.92333984375	-551.3020629882812	-1229.434204101562	25.676513671875	-508.2707214355469	-1198.587890625	245.8681640625	-524.1187744140625	-1033.495239257812	36.14749908447266	-408.2550964355469	-1112.664184570312	40.29289245605469	-388.1144104003906	-1106.6240234375	31.18123054504395	-496.6163635253906	-1308.329467773438	30.35527420043945	-467.6424560546875	-1201.969482421875	496.0135803222656	-249.9421691894531	-1184.203247070312	785.21435546875	-205.1160736083984	-1305.720947265625	35.80130767822266	-280.61376953125	-1210.823120117188	354.2034301757812	-260.3124389648438	-1082.450927734375	36.96085357666016	-257.2281188964844	-1132.795166015625	31.96579360961914	-317.2791137695312	-1183.348022460938	39.47621917724609	-226.2762145996094	-1344.265869140625	21.03651237487793	-344.2609558105469	-1214.69873046875	939.7769775390625	-216.9581298828125	-1011.3828125	882.3270263671875	-578.089599609375	-1016.024536132812	712.3803100585938	-577.75048828125	nan	nan	nan	nan	nan	nan	
64	0.63	-1292.281494140625	1015.998107910156	-367.9103393554688	-1253.529907226562	1017.013427734375	-495.9339599609375	-1263.645751953125	1108.975830078125	-434.6206970214844	-1032.619140625	1284.197143554688	-378.842041015625	-1268.088623046875	1234.158935546875	-438.6993408203125	-1210.430908203125	1505.557250976562	-410.545166015625	-1045.181274414062	1394.953735351562	-379.982177734375	-1307.105712890625	1384.412353515625	-345.9537658691406	-1223.721923828125	1455.97119140625	-509.8640747070312	-1106.994750976562	1474.928466796875	-566.4808349609375	-1100.410888671875	1346.69580078125	-644.5269165039062	-1078.666137695312	1123.805541992188	-656.6871337890625	-1176.425170898438	1118.288452148438	-633.3107299804688	-1033.035888671875	857.6961059570312	-659.5945434570312	-1056.513305664062	1037.320556640625	-654.5491333007812	-1028.599609375	798.0899658203125	-648.33984375	-979.9968872070312	811.9168090820312	-595.836181640625	-1192.858764648438	1462.21044921875	-245.0733184814453	-1228.261840820312	1396.773315429688	-184.1011810302734	-1250.583862304688	1105.746215820312	-149.1027221679688	-1298.589233398438	1091.440063476562	-187.2998199462891	-1119.563354492188	879.6394653320312	-165.4922637939453	-1179.882568359375	860.2919311523438	-110.4882354736328	-1244.748657226562	1049.220336914062	-141.1787414550781	-1121.402954101562	705.7125854492188	-166.4936218261719	-1100.362548828125	785.969970703125	-147.5182495117188	-1166.835571289062	785.2449951171875	-110.8292770385742	-1147.41748046875	1681.363037109375	-323.7473754882812	-960.5468139648438	1697.53564453125	-413.266357421875	-1014.60205078125	1693.779907226562	-279.5898742675781	-1078.819091796875	1683.578491210938	-474.4522399902344	-1093.4853515625	925.4285278320312	-585.2969970703125	-1109.53662109375	966.1153564453125	-247.5251617431641	-1037.420532226562	952.717041015625	-515.0995483398438	-1124.23388671875	485.9471130371094	-511.4286193847656	-1101.110473632812	649.888916015625	-551.9728393554688	-1229.436645507812	25.5771427154541	-508.3488464355469	-1198.338745117188	245.6683349609375	-524.3203125	-1033.486206054688	36.12571334838867	-408.3440246582031	-1112.676635742188	40.28853225708008	-388.0959777832031	-1106.629516601562	31.17385101318359	-496.6203918457031	-1308.336181640625	30.32544708251953	-467.7319030761719	-1200.614013671875	495.9603576660156	-249.9740600585938	-1183.365966796875	785.2444458007812	-205.5445556640625	-1305.708129882812	35.8594970703125	-280.6246948242188	-1209.688598632812	354.029541015625	-260.3084411621094	-1082.460693359375	36.97009658813477	-257.2451171875	-1132.808471679688	31.95019721984863	-317.2821960449219	-1183.3330078125	39.48780059814453	-226.3323974609375	-1344.258422851562	21.06771278381348	-344.2664489746094	-1213.872314453125	939.7686157226562	-217.4704742431641	-1010.807189941406	882.0233154296875	-578.6718139648438	-1015.545166015625	712.07080078125	-578.3311767578125	nan	nan	nan	nan	nan	nan	
65	0.64	-1291.529663085938	1016.024841308594	-368.4603881835938	-1252.839233398438	1016.9677734375	-496.5371704101562	-1262.744140625	1109.116455078125	-435.1916198730469	-1031.419189453125	1283.903076171875	-379.5343017578125	-1266.972290039062	1234.315307617188	-439.3069763183594	-1208.742309570312	1505.594970703125	-411.1404418945312	-1043.692993164062	1394.7021484375	-380.6166687011719	-1305.641845703125	1384.62548828125	-346.5178527832031	-1222.171997070312	1456.032470703125	-510.4731750488281	-1105.376708984375	1474.837524414062	-567.0888671875	-1099.053588867188	1346.583740234375	-645.161865234375	-1077.640625	1123.65283203125	-657.368896484375	-1175.414916992188	1118.256469726562	-634.03759765625	-1032.35302734375	857.4605712890625	-660.2249755859375	-1055.593017578125	1037.14697265625	-655.2006225585938	-1027.992919921875	797.864013671875	-648.9634399414062	-979.3804321289062	811.6575927734375	-596.4327392578125	-1191.199951171875	1462.198608398438	-245.6863403320312	-1226.709228515625	1396.821899414062	-184.7128753662109	-1249.53271484375	1105.900512695312	-149.5677947998047	-1297.571899414062	1091.6259765625	-187.7519989013672	-1118.7421875	879.6773681640625	-165.8615417480469	-1179.122314453125	860.400390625	-110.8003234863281	-1243.769165039062	1049.368408203125	-141.6187896728516	-1120.727416992188	705.7322387695312	-166.7575073242188	-1099.596557617188	786.0169677734375	-147.8166961669922	-1166.064331054688	785.3154296875	-111.1990356445312	-1145.098388671875	1681.272827148438	-324.173095703125	-958.1765747070312	1696.896240234375	-413.7426147460938	-1012.237731933594	1693.186279296875	-280.0617370605469	-1076.565795898438	1683.40380859375	-474.8966674804688	-1093.156127929688	925.4779052734375	-586.1010131835938	-1108.764038085938	966.0626220703125	-248.171142578125	-1036.82373046875	952.535888671875	-515.84716796875	-1123.751220703125	485.8183898925781	-511.8737182617188	-1100.783935546875	649.851806640625	-552.6499633789062	-1229.436157226562	25.48193168640137	-508.4297790527344	-1198.097045898438	245.4672698974609	-524.4796752929688	-1033.494262695312	36.11209106445312	-408.4057006835938	-1112.686889648438	40.2802619934082	-388.0753173828125	-1106.635375976562	31.16908264160156	-496.6253967285156	-1308.34521484375	30.28943252563477	-467.8225402832031	-1199.097778320312	495.8947143554688	-249.9446868896484	-1182.480590820312	785.2682495117188	-205.9541778564453	-1305.682861328125	35.93954467773438	-280.6408996582031	-1208.410888671875	353.8466186523438	-260.2856140136719	-1082.460327148438	36.97506713867188	-257.2618408203125	-1132.817626953125	31.92463111877441	-317.2810668945312	-1183.30908203125	39.49802780151367	-226.3974609375	-1344.241943359375	21.12062644958496	-344.2783203125	-1213.016967773438	939.77001953125	-218.0085601806641	-1010.204956054688	881.7156372070312	-579.2376098632812	-1015.0615234375	711.7402954101562	-578.8875732421875	nan	nan	nan	nan	nan	nan	
